<?xml version="1.0" encoding="UTF-8" standalone="no"?>
<!-- Created with Inkscape (http://www.inkscape.org/) -->

<svg
   xmlns:dc="http://purl.org/dc/elements/1.1/"
   xmlns:cc="http://creativecommons.org/ns#"
   xmlns:rdf="http://www.w3.org/1999/02/22-rdf-syntax-ns#"
   xmlns:svg="http://www.w3.org/2000/svg"
   xmlns="http://www.w3.org/2000/svg"
   xmlns:sodipodi="http://sodipodi.sourceforge.net/DTD/sodipodi-0.dtd"
   xmlns:inkscape="http://www.inkscape.org/namespaces/inkscape"
   version="1.1"
   id="svg815"
   width="616"
   height="178"
   viewBox="0 0 616 178"
   sodipodi:docname="vicos.svg"
   inkscape:version="0.92.4 (5da689c313, 2019-01-14)">
  <metadata
     id="metadata821">
    <rdf:RDF>
      <cc:Work
         rdf:about="">
        <dc:format>image/svg+xml</dc:format>
        <dc:type
           rdf:resource="http://purl.org/dc/dcmitype/StillImage" />
        <dc:title></dc:title>
      </cc:Work>
    </rdf:RDF>
  </metadata>
  <defs
     id="defs819" />
  <sodipodi:namedview
     pagecolor="#3b3b3b"
     bordercolor="#666666"
     borderopacity="1"
     objecttolerance="10"
     gridtolerance="10"
     guidetolerance="10"
     inkscape:pageopacity="0"
     inkscape:pageshadow="2"
     inkscape:window-width="1920"
     inkscape:window-height="996"
     id="namedview817"
     showgrid="false"
     inkscape:zoom="1.4142136"
     inkscape:cx="276.74598"
     inkscape:cy="-28.150184"
     inkscape:window-x="-8"
     inkscape:window-y="-8"
     inkscape:window-maximized="1"
     inkscape:current-layer="layer1" />
  <g
     inkscape:groupmode="layer"
     id="layer1"
     inkscape:label="Layer 1">
    <g
       id="g4591"
       transform="translate(-1.4142136,-3.5355349)">
      <g
         id="g4563">
        <path
           style="fill:#868686;fill-opacity:1;stroke:none;stroke-width:1px;stroke-linecap:butt;stroke-linejoin:miter;stroke-opacity:1"
           d="M 12.063333,27.85 H 47.226667 L 79.823333,121.27667 112.16333,27.336667 H 147.07 L 99.073333,162.85667 H 60.316667 Z"
           id="path4530"
           inkscape:connector-curvature="0" />
        <path
           style="fill:#868686;fill-opacity:1;stroke:none;stroke-width:1px;stroke-linecap:butt;stroke-linejoin:miter;stroke-opacity:1"
           d="m 163.26907,27.235642 h 32.79538 v 24.065672 h -32.55944 z"
           id="path4532"
           inkscape:connector-curvature="0" />
        <path
           style="fill:#868686;fill-opacity:1;stroke:none;stroke-width:1px;stroke-linecap:butt;stroke-linejoin:miter;stroke-opacity:1"
           d="m 163.97688,64.985716 h 31.14381 v 98.150194 h -31.14381 z"
           id="path4534"
           inkscape:connector-curvature="0" />
        <path
           style="fill:#868686;fill-opacity:1;stroke:none;stroke-width:1px;stroke-linecap:butt;stroke-linejoin:miter;stroke-opacity:1"
           d="M 328.66166,70.670556 V 38.972223 c 0,0 -16.96138,-10.844167 -43.93277,-10.844167 -26.97139,0 -70.07,12.790556 -69.23584,67.5675 0.83417,54.776944 39.76195,67.289444 62.84056,67.845554 23.07861,0.55611 49.77194,-10.84417 49.77194,-10.84417 v -31.42027 h -3.61472 c 0,0 -20.02,18.35166 -37.5375,17.5175 -17.5175,-0.83417 -36.14722,-12.23445 -36.14722,-42.542503 0,-30.308055 18.07361,-43.376666 36.42528,-43.376666 18.35166,0 37.5375,17.795555 37.5375,17.795555 z"
           id="path4536"
           inkscape:connector-curvature="0" />
        <path
           style="fill:#868686;fill-opacity:1;stroke:none;stroke-width:1px;stroke-linecap:butt;stroke-linejoin:miter;stroke-opacity:1"
           d="M 599.32997,67.032129 V 36.768164 c 0,0 -21.98664,-9.053322 -46.55995,-8.53599 -24.5733,0.517333 -58.71726,11.122654 -58.71726,40.093287 0,28.970633 24.26763,36.199359 38.79995,40.093289 14.53233,3.89392 36.47196,4.39733 36.47196,17.07198 0,12.67465 -14.74398,12.93332 -25.09064,12.93332 -10.34665,0 -25.35519,-2.83514 -33.88529,-7.75999 -8.5301,-4.92486 -13.70932,-9.57066 -13.70932,-9.57066 h -3.62133 v 31.29863 c 0,0 22.76264,10.34665 49.40528,10.34665 26.64263,0 61.56259,-9.57065 61.56259,-43.19728 0,-33.626626 -30.07494,-34.918714 -45.52528,-39.05862 -15.45034,-4.139906 -30.00529,-5.431994 -30.00529,-16.554647 0,-11.122654 23.0213,-11.898653 28.19463,-11.898653 5.17333,0 20.94858,3.437859 26.64263,6.725325 5.69406,3.287467 12.41599,8.018658 12.41599,8.018658 z"
           id="path4538"
           inkscape:connector-curvature="0" />
      </g>
      <path
         inkscape:connector-curvature="0"
         id="path4540"
         d="m 410.62109,18.675336 a 75.372174,75.920878 0 0 0 -75.37154,75.920367 75.372174,75.920878 0 0 0 75.37154,75.920367 75.372174,75.920878 0 0 0 75.37155,-75.920367 75.372174,75.920878 0 0 0 -75.37155,-75.920367 z m 0.0773,24.809217 a 50.296117,50.933221 0 0 1 50.29593,50.93472 50.296117,50.933221 0 0 1 -50.29593,50.932747 50.296117,50.933221 0 0 1 -50.29594,-50.932747 50.296117,50.933221 0 0 1 50.29594,-50.93472 z"
         style="fill:#868686;fill-opacity:1;stroke:none;stroke-width:2.552531;stroke-miterlimit:4;stroke-dasharray:none;stroke-opacity:1" />
      <path
         inkscape:connector-curvature="0"
         id="path4565"
         d="M 410.75,47.179688 A 47.358479,47.246513 0 0 0 363.39062,94.425781 47.358479,47.246513 0 0 0 410.75,141.67383 47.358479,47.246513 0 0 0 458.10938,94.425781 47.358479,47.246513 0 0 0 410.75,47.179688 Z m -0.0547,41.199218 a 6.162292,5.9965134 0 0 1 6.16407,5.996094 6.162292,5.9965134 0 0 1 -6.16407,5.99609 6.162292,5.9965134 0 0 1 -6.16211,-5.99609 6.162292,5.9965134 0 0 1 6.16211,-5.996094 z"
         style="fill:#858585;fill-opacity:1;stroke:none;stroke-width:2.74651217;stroke-miterlimit:4;stroke-dasharray:none;stroke-opacity:1" />
    </g>
  </g>
</svg>
